#!OML:ASF H:\Terrain\Patient Classification 1\Animal2\Wednesday\Animal2.ASF
:FULLY-SPECIFIED
:DEGREES
3171
root 6.11489 12.5647 -4.01779 20.82 3.06696 0.902317
lowerback 39.8707 -0.12705 3.09665
upperback 9.83464 0.811145 -2.22716
thorax -8.29885 0.438019 -4.31892
lowerneck 5.40267 12.5914 18.2452
upperneck -24.7985 14.1055 -35.5547
head -3.286 9.07978 -15.7677
rclavicle 8.74653e-015 -9.93923e-016
rhumerus 17.0744 9.17457 -49.4523
rradius 55.6449
rwrist 2.10712
rhand -16.6541 18.0206
rfingers 7.12502
rthumb 9.56913 -11.7421
lclavicle 8.74653e-015 -9.93923e-016
lhumerus -378.053 -11.3637 419.44
lradius 20.5175
lwrist -3.89912
lhand 4.40756 24.6741
lfingers 7.12502
lthumb 29.8047 52.2966
rfemur -85.2143 -7.06634 -4.00584
rtibia 93.1324
rfoot -29.5967 -2.99974
rtoes -34.7958
lfemur -53.0457 8.34248 17.6599
ltibia 80.2421
lfoot -34.0177 -0.556406
ltoes -49.1381
3172
root 6.10069 12.5502 -4.01195 20.6685 2.92205 0.807153
lowerback 40.1075 -0.0242593 2.97278
upperback 9.77492 0.888135 -2.24951
thorax -8.43642 0.469185 -4.31237
lowerneck 5.36702 12.5846 18.2298
upperneck -24.7032 14.1159 -35.4376
head -3.26731 9.06652 -15.7
rclavicle 4.25399e-014 -3.67752e-014
rhumerus 17.2237 9.5327 -49.2892
rradius 57.2062
rwrist 1.36789
rhand -17.6376 18.2266
rfingers 7.12502
rthumb 8.62003 -11.5774
lclavicle 4.25399e-014 -3.67752e-014
lhumerus -378.621 -13.888 419.128
lradius 20.4991
lwrist -2.52515
lhand 6.67718 25.3635
lfingers 7.12502
lthumb 31.9684 52.5758
rfemur -85.2423 -6.87641 -3.90618
rtibia 93.4059
rfoot -29.8158 -3.02146
rtoes -35.1311
lfemur -52.8033 8.63291 17.7247
ltibia 80.3178
lfoot -33.8535 -0.100757
ltoes -49.1874
3173
root 6.0869 12.5342 -4.004 20.4534 2.99783 0.700287
lowerback 40.3033 -0.00322708 3.02731
upperback 9.76662 0.944623 -2.2068
thorax -8.50159 0.492858 -4.31963
lowerneck 5.37615 12.5556 18.223
upperneck -24.6484 14.0883 -35.3875
head -3.26942 9.0457 -15.6789
rclavicle -5.96354e-015 6.95746e-015
rhumerus 17.287 9.74 -49.1332
rradius 58.745
rwrist 0.535736
rhand -18.5429 18.7127
rfingers 7.12502
rthumb 7.74634 -11.1255
lclavicle -5.96354e-015 6.95746e-015
lhumerus -378.412 -9.50774 418.863
lradius 19.0528
lwrist -7.62503
lhand 8.64831 25.4155
lfingers 7.12502
lthumb 33.8432 52.2339
rfemur -85.1099 -6.77377 -3.78317
rtibia 93.6836
rfoot -29.9814 -2.83615
rtoes -34.5383
lfemur -52.5861 8.72336 17.9008
ltibia 80.3538
lfoot -33.5753 -0.49228
ltoes -48.0527
3174
root 6.07212 12.513 -3.99739 20.1998 3.20846 0.797623
lowerback 40.3918 -0.0342999 3.0029
upperback 9.86867 0.907423 -2.17863
thorax -8.41857 0.481205 -4.2604
lowerneck 5.31728 12.5517 18.1901
upperneck -24.6445 14.0804 -35.3197
head -3.2724 9.03386 -15.6394
rclavicle 2.26615e-014 -2.64384e-014
rhumerus 17.2849 9.79025 -49.1221
rradius 60.2896
rwrist -0.0720815
rhand -18.9739 19.1845
rfingers 7.12502
rthumb 7.33031 -10.6685
lclavicle 2.26615e-014 -2.64384e-014
lhumerus -378.288 -7.29705 418.454
lradius 18.1258
lwrist -10.3269
lhand 10.5317 25.1759
lfingers 7.12502
lthumb 35.6305 51.5824
rfemur -84.9496 -6.99643 -3.75945
rtibia 93.9516
rfoot -30.0643 -2.53518
rtoes -33.9648
lfemur -52.4763 8.68988 17.906
ltibia 80.3762
lfoot -33.482 -0.499637
ltoes -47.9458
3175
root 6.05979 12.4985 -3.99094 19.9311 3.38664 0.833146
lowerback 40.5008 -0.0650643 3.01625
upperback 9.94861 0.885697 -2.14313
thorax -8.36457 0.474863 -4.21984
lowerneck 5.26685 12.5319 18.1914
upperneck -24.5215 14.0713 -35.2689
head -3.23785 9.01515 -15.6014
rclavicle -1.63003e-014 3.55825e-014
rhumerus 17.2327 9.86803 -49.1079
rradius 61.8859
rwrist -0.613592
rhand -19.0668 19.5596
rfingers 7.12502
rthumb 7.24069 -10.2965
lclavicle -1.63003e-014 3.55825e-014
lhumerus -378.403 -6.91823 418.123
lradius 17.61
lwrist -10.9991
lhand 12.0325 25.5526
lfingers 7.12502
lthumb 37.0515 51.6037
rfemur -84.7202 -7.10022 -3.70507
rtibia 94.1592
rfoot -30.1586 -2.52423
rtoes -34.0914
lfemur -52.3179 8.69252 17.9553
ltibia 80.3811
lfoot -33.5008 -0.388875
ltoes -48.4012
3176
root 6.05193 12.497 -3.98571 19.7346 3.49531 0.872308
lowerback 40.6159 -0.100027 3.01458
upperback 9.92218 0.849532 -2.12732
thorax -8.43302 0.456899 -4.18898
lowerneck 5.4144 12.4977 18.2846
upperneck -24.4152 14.0667 -35.289
head -3.22485 9.01072 -15.6334
rclavicle -7.15625e-015 1.07344e-014
rhumerus 17.1309 10.0915 -49.1393
rradius 63.4641
rwrist -1.15857
rhand -19.2331 19.918
rfingers 7.12502
rthumb 7.08012 -9.94359
lclavicle -7.15625e-015 1.07344e-014
lhumerus -378.741 -6.79669 417.827
lradius 17.3614
lwrist -11.2787
lhand 13.3956 26.5831
lfingers 7.12502
lthumb 38.3394 52.2892
rfemur -84.4268 -6.97088 -3.79566
rtibia 94.3036
rfoot -30.3403 -2.75992
rtoes -34.2708
lfemur -52.1657 8.73285 17.9296
ltibia 80.3597
lfoot -33.5744 -0.6312
ltoes -48.4737
